G04*
G04 #@! TF.GenerationSoftware,Altium Limited,Altium Designer,20.0.13 (296)*
G04*
G04 Layer_Color=65535*
%FSLAX42Y42*%
%MOMM*%
G71*
G01*
G75*
%ADD10C,0.20*%
%ADD11C,0.13*%
%ADD12C,0.25*%
%ADD13C,1.00*%
D10*
X8427Y4713D02*
G03*
X8427Y4713I-10J0D01*
G01*
X13269Y7154D02*
G03*
X13269Y7154I-10J0D01*
G01*
Y5084D02*
G03*
X13269Y5084I-10J0D01*
G01*
X9561Y10609D02*
G03*
X9561Y10609I-10J0D01*
G01*
X11544Y10338D02*
Y10414D01*
X11036D02*
X11544D01*
X11036Y10262D02*
Y10414D01*
Y10262D02*
X11544D01*
Y10338D01*
X11013D02*
X11036D01*
X11544D02*
X11567D01*
X7953Y4664D02*
Y9814D01*
X8481D01*
Y4664D02*
Y9814D01*
X7953Y4664D02*
X8481D01*
X9728Y4940D02*
Y6718D01*
X9474D02*
X9728D01*
X9474Y4940D02*
Y6718D01*
Y4940D02*
X9728D01*
X9474Y9373D02*
X9728D01*
Y8103D02*
Y9373D01*
X9474Y8103D02*
Y9373D01*
Y8103D02*
X9728D01*
D11*
X12040Y9550D02*
G03*
X12522Y9550I241J0D01*
G01*
X11976Y9804D02*
Y10706D01*
Y9804D02*
X12586D01*
Y10706D01*
X12040Y9550D02*
Y9804D01*
X12522Y9550D02*
Y9804D01*
X11976Y10706D02*
X12090D01*
Y10452D02*
Y10706D01*
Y10452D02*
X12471D01*
Y10706D01*
X12586D01*
X12934Y7229D02*
Y8545D01*
X13584D01*
Y7229D02*
Y8545D01*
X12934Y7229D02*
X13584D01*
X11722Y4677D02*
X12738D01*
Y3957D02*
Y4677D01*
Y3857D02*
Y3957D01*
X11722Y3857D02*
X12738D01*
X11722D02*
Y3957D01*
Y4677D01*
Y3957D02*
X12738D01*
X12934Y5159D02*
Y6475D01*
X13584D01*
Y5159D02*
Y6475D01*
X12934Y5159D02*
X13584D01*
X9356Y10089D02*
X10346D01*
Y10539D01*
X9356Y10089D02*
Y10539D01*
X10346D01*
D12*
X11138Y9995D02*
X11036D01*
X11138Y10096D01*
Y10122D01*
X11113Y10147D01*
X11062D01*
X11036Y10122D01*
X11290Y9995D02*
X11189D01*
X11290Y10096D01*
Y10122D01*
X11265Y10147D01*
X11214D01*
X11189Y10122D01*
X11341D02*
X11366Y10147D01*
X11417D01*
X11443Y10122D01*
Y10020D01*
X11417Y9995D01*
X11366D01*
X11341Y10020D01*
Y10122D01*
X11493Y9995D02*
Y10147D01*
X11570D01*
X11595Y10122D01*
Y10071D01*
X11570Y10046D01*
X11493D01*
X11544D02*
X11595Y9995D01*
X7747Y6630D02*
X7595D01*
X7671Y6553D01*
Y6655D01*
X7620Y6706D02*
X7595Y6731D01*
Y6782D01*
X7620Y6807D01*
X7722D01*
X7747Y6782D01*
Y6731D01*
X7722Y6706D01*
X7620D01*
X7595Y7010D02*
X7747D01*
X7671D01*
Y7112D01*
X7595D01*
X7747D01*
Y7239D02*
Y7188D01*
X7722Y7163D01*
X7671D01*
X7645Y7188D01*
Y7239D01*
X7671Y7264D01*
X7696D01*
Y7163D01*
X7645Y7341D02*
Y7391D01*
X7671Y7417D01*
X7747D01*
Y7341D01*
X7722Y7315D01*
X7696Y7341D01*
Y7417D01*
X7595Y7569D02*
X7747D01*
Y7493D01*
X7722Y7468D01*
X7671D01*
X7645Y7493D01*
Y7569D01*
X7747Y7696D02*
Y7645D01*
X7722Y7620D01*
X7671D01*
X7645Y7645D01*
Y7696D01*
X7671Y7721D01*
X7696D01*
Y7620D01*
X7645Y7772D02*
X7747D01*
X7696D01*
X7671Y7798D01*
X7645Y7823D01*
Y7848D01*
X7747Y7925D02*
Y8001D01*
X7722Y8026D01*
X7696Y8001D01*
Y7950D01*
X7671Y7925D01*
X7645Y7950D01*
Y8026D01*
X9489Y6957D02*
Y6805D01*
X9566D01*
X9591Y6830D01*
Y6855D01*
X9566Y6881D01*
X9489D01*
X9566D01*
X9591Y6906D01*
Y6932D01*
X9566Y6957D01*
X9489D01*
X9642Y6805D02*
Y6957D01*
X9693Y6906D01*
X9743Y6957D01*
Y6805D01*
X9896Y6957D02*
X9794D01*
Y6805D01*
X9896D01*
X9794Y6881D02*
X9845D01*
X10048Y6957D02*
X9997Y6932D01*
X9946Y6881D01*
Y6830D01*
X9972Y6805D01*
X10023D01*
X10048Y6830D01*
Y6855D01*
X10023Y6881D01*
X9946D01*
X10099Y6932D02*
X10124Y6957D01*
X10175D01*
X10200Y6932D01*
Y6906D01*
X10175Y6881D01*
X10200Y6855D01*
Y6830D01*
X10175Y6805D01*
X10124D01*
X10099Y6830D01*
Y6855D01*
X10124Y6881D01*
X10099Y6906D01*
Y6932D01*
X10124Y6881D02*
X10175D01*
X10251Y6932D02*
X10277Y6957D01*
X10327D01*
X10353Y6932D01*
Y6830D01*
X10327Y6805D01*
X10277D01*
X10251Y6830D01*
Y6932D01*
X11995Y10941D02*
Y10789D01*
X12071D01*
X12097Y10814D01*
Y10916D01*
X12071Y10941D01*
X11995D01*
X12148Y10789D02*
X12198D01*
X12173D01*
Y10941D01*
X12148Y10916D01*
X12737Y8800D02*
X12635D01*
Y8724D01*
X12686Y8749D01*
X12711D01*
X12737Y8724D01*
Y8673D01*
X12711Y8647D01*
X12661D01*
X12635Y8673D01*
X12788Y8800D02*
Y8698D01*
X12838Y8647D01*
X12889Y8698D01*
Y8800D01*
X11688Y4832D02*
Y4985D01*
X11764D01*
X11789Y4959D01*
Y4909D01*
X11764Y4883D01*
X11688D01*
X11739D02*
X11789Y4832D01*
X11916D02*
X11866D01*
X11840Y4858D01*
Y4909D01*
X11866Y4934D01*
X11916D01*
X11942Y4909D01*
Y4883D01*
X11840D01*
X11993Y4832D02*
X12043D01*
X12018D01*
Y4985D01*
X11993D01*
X12145Y4934D02*
X12196D01*
X12221Y4909D01*
Y4832D01*
X12145D01*
X12119Y4858D01*
X12145Y4883D01*
X12221D01*
X12272Y4934D02*
Y4858D01*
X12297Y4832D01*
X12373D01*
Y4807D01*
X12348Y4782D01*
X12323D01*
X12373Y4832D02*
Y4934D01*
X12424Y4832D02*
X12500D01*
X12526Y4858D01*
X12500Y4883D01*
X12450D01*
X12424Y4909D01*
X12450Y4934D01*
X12526D01*
X9489Y9611D02*
Y9510D01*
X9540Y9459D01*
X9591Y9510D01*
Y9611D01*
X9743D02*
X9642D01*
Y9459D01*
X9743D01*
X9642Y9535D02*
X9693D01*
X9794Y9459D02*
Y9611D01*
X9845Y9561D01*
X9896Y9611D01*
Y9459D01*
X9946Y9611D02*
Y9459D01*
X10048D01*
X10099Y9611D02*
X10200D01*
Y9586D01*
X10099Y9484D01*
Y9459D01*
X10251Y9611D02*
X10353D01*
Y9586D01*
X10251Y9484D01*
Y9459D01*
X10404Y9586D02*
X10429Y9611D01*
X10480D01*
X10505Y9586D01*
Y9484D01*
X10480Y9459D01*
X10429D01*
X10404Y9484D01*
Y9586D01*
X10556D02*
X10581Y9611D01*
X10632D01*
X10657Y9586D01*
Y9484D01*
X10632Y9459D01*
X10581D01*
X10556Y9484D01*
Y9586D01*
X12737Y6704D02*
X12711Y6730D01*
X12661D01*
X12635Y6704D01*
Y6603D01*
X12661Y6577D01*
X12711D01*
X12737Y6603D01*
Y6654D01*
X12686D01*
X12788Y6679D02*
Y6577D01*
Y6628D01*
X12813Y6654D01*
X12838Y6679D01*
X12864D01*
X12965Y6577D02*
X13016D01*
X13041Y6603D01*
Y6654D01*
X13016Y6679D01*
X12965D01*
X12940Y6654D01*
Y6603D01*
X12965Y6577D01*
X13092Y6679D02*
Y6603D01*
X13118Y6577D01*
X13194D01*
Y6679D01*
X13245Y6577D02*
Y6679D01*
X13321D01*
X13346Y6654D01*
Y6577D01*
X13499Y6730D02*
Y6577D01*
X13422D01*
X13397Y6603D01*
Y6654D01*
X13422Y6679D01*
X13499D01*
X9182Y10706D02*
Y10808D01*
X9207D01*
X9233Y10782D01*
Y10706D01*
Y10782D01*
X9258Y10808D01*
X9284Y10782D01*
Y10706D01*
X9360D02*
X9411D01*
X9436Y10731D01*
Y10782D01*
X9411Y10808D01*
X9360D01*
X9334Y10782D01*
Y10731D01*
X9360Y10706D01*
X9487D02*
X9538D01*
X9512D01*
Y10808D01*
X9487D01*
X9614Y10706D02*
X9690D01*
X9715Y10731D01*
X9690Y10757D01*
X9639D01*
X9614Y10782D01*
X9639Y10808D01*
X9715D01*
X9792Y10833D02*
Y10808D01*
X9766D01*
X9817D01*
X9792D01*
Y10731D01*
X9817Y10706D01*
X9893Y10808D02*
Y10731D01*
X9918Y10706D01*
X9995D01*
Y10808D01*
X10045D02*
Y10706D01*
Y10757D01*
X10071Y10782D01*
X10096Y10808D01*
X10122D01*
X10274Y10706D02*
X10223D01*
X10198Y10731D01*
Y10782D01*
X10223Y10808D01*
X10274D01*
X10299Y10782D01*
Y10757D01*
X10198D01*
X10502Y10706D02*
X10579D01*
X10604Y10731D01*
X10579Y10757D01*
X10528D01*
X10502Y10782D01*
X10528Y10808D01*
X10604D01*
X10731Y10706D02*
X10680D01*
X10655Y10731D01*
Y10782D01*
X10680Y10808D01*
X10731D01*
X10756Y10782D01*
Y10757D01*
X10655D01*
X10807Y10706D02*
Y10808D01*
X10883D01*
X10909Y10782D01*
Y10706D01*
X10960D02*
X11036D01*
X11061Y10731D01*
X11036Y10757D01*
X10985D01*
X10960Y10782D01*
X10985Y10808D01*
X11061D01*
X11137Y10706D02*
X11188D01*
X11213Y10731D01*
Y10782D01*
X11188Y10808D01*
X11137D01*
X11112Y10782D01*
Y10731D01*
X11137Y10706D01*
X11264Y10808D02*
Y10706D01*
Y10757D01*
X11290Y10782D01*
X11315Y10808D01*
X11340D01*
D13*
X7328Y3843D02*
X7386Y3785D01*
X13797D01*
X13856Y3843D02*
Y10935D01*
X13767Y11024D02*
X13856Y10935D01*
X13797Y3785D02*
X13856Y3843D01*
X7328Y10965D02*
X7386Y11024D01*
X7633D01*
X7328Y3843D02*
Y10965D01*
X7645Y11024D02*
X13767D01*
M02*
