G04*
G04 #@! TF.GenerationSoftware,Altium Limited,Altium Designer,20.0.13 (296)*
G04*
G04 Layer_Color=255*
%FSLAX42Y42*%
%MOMM*%
G71*
G01*
G75*
%ADD13C,1.00*%
%ADD27C,1.40*%
%ADD28C,1.53*%
%ADD29C,1.50*%
%ADD30R,1.50X1.50*%
%ADD31C,6.20*%
%ADD32C,1.78*%
%ADD33R,1.80X1.80*%
%ADD34C,1.80*%
%ADD35R,1.65X1.65*%
%ADD36C,1.65*%
%ADD37R,1.31X1.31*%
%ADD38C,1.31*%
D13*
X7328Y3843D02*
X7386Y3785D01*
X13797D01*
X13856Y3843D02*
Y10935D01*
X13767Y11024D02*
X13856Y10935D01*
X13797Y3785D02*
X13856Y3843D01*
X7328Y10965D02*
X7386Y11024D01*
X7633D01*
X7328Y3843D02*
Y10965D01*
X7645Y11024D02*
X13767D01*
D27*
X11671Y10338D02*
D03*
X10909D02*
D03*
D28*
X8090Y4826D02*
D03*
Y5080D02*
D03*
X8344Y4826D02*
D03*
Y5080D02*
D03*
Y5334D02*
D03*
X8090D02*
D03*
X8344Y5588D02*
D03*
X8090D02*
D03*
X8344Y5842D02*
D03*
X8090D02*
D03*
X8344Y6096D02*
D03*
X8090D02*
D03*
X8344Y6350D02*
D03*
X8090D02*
D03*
X8344Y6604D02*
D03*
X8090D02*
D03*
X8344Y6858D02*
D03*
X8090D02*
D03*
X8344Y7112D02*
D03*
X8090D02*
D03*
X8344Y7366D02*
D03*
X8090D02*
D03*
X8344Y7620D02*
D03*
X8090D02*
D03*
X8344Y7874D02*
D03*
X8090D02*
D03*
X8344Y8128D02*
D03*
X8090D02*
D03*
X8344Y8382D02*
D03*
X8090D02*
D03*
X8344Y8636D02*
D03*
X8090D02*
D03*
X8344Y8890D02*
D03*
X8090D02*
D03*
X8344Y9144D02*
D03*
X8090D02*
D03*
X8344Y9398D02*
D03*
X8090D02*
D03*
X8344Y9652D02*
D03*
X8090D02*
D03*
D29*
X9601Y5067D02*
D03*
Y5321D02*
D03*
Y5575D02*
D03*
Y5829D02*
D03*
Y6337D02*
D03*
Y6083D02*
D03*
Y8230D02*
D03*
Y8484D02*
D03*
Y8738D02*
D03*
Y8992D02*
D03*
D30*
Y6591D02*
D03*
Y9246D02*
D03*
D31*
X8219Y10182D02*
D03*
Y4381D02*
D03*
X13119D02*
D03*
Y10182D02*
D03*
D32*
X12408Y10325D02*
D03*
X12154D02*
D03*
D33*
X13259Y7379D02*
D03*
Y5309D02*
D03*
D34*
Y7633D02*
D03*
Y7887D02*
D03*
Y8141D02*
D03*
Y8395D02*
D03*
Y5563D02*
D03*
Y5817D02*
D03*
Y6071D02*
D03*
Y6325D02*
D03*
D35*
X11976Y4267D02*
D03*
D36*
X12484D02*
D03*
D37*
X9551Y10369D02*
D03*
D38*
X9751D02*
D03*
X9951D02*
D03*
X10151D02*
D03*
M02*
