M48
;Layer_Color=9474304
;FILE_FORMAT=4:2
METRIC,LZ
;TYPE=PLATED
T1F00S00C0.71
T2F00S00C0.80
T3F00S00C0.85
T4F00S00C0.90
T5F00S00C1.02
T6F00S00C1.10
T7F00S00C1.20
T8F00S00C1.27
T9F00S00C2.75
%
T01
X007531Y004699
T02
X009551Y010369
X009751
X009951
X010151
T03
X010909Y010338
X011671
T04
X009601Y005067
Y005321
Y005575
Y005829
Y006083
Y006337
Y006591
Y00823
Y008484
Y008738
Y008992
Y009246
T05
X00809Y004826
Y00508
X008344
Y004826
Y005334
X00809
Y005588
X008344
Y005842
X00809
Y006096
X008344
Y00635
X00809
Y006604
X008344
Y006858
X00809
Y007112
X008344
Y007366
X00809
Y00762
X008344
Y007874
X00809
Y008128
X008344
Y008382
X00809
Y008636
X008344
Y00889
X00809
Y009144
X008344
Y009398
X00809
Y009652
X008344
T06
X011976Y004267
X012484
T07
X013259Y005309
Y005563
Y005817
Y006071
Y006325
Y007379
Y007633
Y007887
Y008141
Y008395
T08
X012154Y010325
X012408
T09
X013119Y004381
X008219
Y010182
X013119
M30
