G04*
G04 #@! TF.GenerationSoftware,Altium Limited,Altium Designer,20.0.13 (296)*
G04*
G04 Layer_Color=128*
%FSLAX42Y42*%
%MOMM*%
G71*
G01*
G75*
%ADD13C,1.00*%
%ADD40C,0.05*%
D13*
X7328Y3843D02*
X7386Y3785D01*
X13797D01*
X13856Y3843D02*
Y10935D01*
X13767Y11024D02*
X13856Y10935D01*
X13797Y3785D02*
X13856Y3843D01*
X7328Y10965D02*
X7386Y11024D01*
X7633D01*
X7328Y3843D02*
Y10965D01*
X7645Y11024D02*
X13767D01*
D40*
X11629Y10338D02*
X11714D01*
X11671Y10295D02*
Y10380D01*
X10867Y10338D02*
X10952D01*
X10909Y10295D02*
Y10380D01*
X8039Y4826D02*
X8141D01*
X8090Y4775D02*
Y4877D01*
X8039Y5080D02*
X8141D01*
X8090Y5029D02*
Y5131D01*
X8293Y4826D02*
X8395D01*
X8344Y4775D02*
Y4877D01*
X8293Y5080D02*
X8395D01*
X8344Y5029D02*
Y5131D01*
X8293Y5334D02*
X8395D01*
X8344Y5283D02*
Y5385D01*
X8039Y5334D02*
X8141D01*
X8090Y5283D02*
Y5385D01*
X8293Y5588D02*
X8395D01*
X8344Y5537D02*
Y5639D01*
X8039Y5588D02*
X8141D01*
X8090Y5537D02*
Y5639D01*
X8293Y5842D02*
X8395D01*
X8344Y5791D02*
Y5893D01*
X8039Y5842D02*
X8141D01*
X8090Y5791D02*
Y5893D01*
X8293Y6096D02*
X8395D01*
X8344Y6045D02*
Y6147D01*
X8039Y6096D02*
X8141D01*
X8090Y6045D02*
Y6147D01*
X8293Y6350D02*
X8395D01*
X8344Y6299D02*
Y6401D01*
X8039Y6350D02*
X8141D01*
X8090Y6299D02*
Y6401D01*
X8293Y6604D02*
X8395D01*
X8344Y6553D02*
Y6655D01*
X8039Y6604D02*
X8141D01*
X8090Y6553D02*
Y6655D01*
X8293Y6858D02*
X8395D01*
X8344Y6807D02*
Y6909D01*
X8039Y6858D02*
X8141D01*
X8090Y6807D02*
Y6909D01*
X8293Y7112D02*
X8395D01*
X8344Y7061D02*
Y7163D01*
X8039Y7112D02*
X8141D01*
X8090Y7061D02*
Y7163D01*
X8293Y7366D02*
X8395D01*
X8344Y7315D02*
Y7417D01*
X8039Y7366D02*
X8141D01*
X8090Y7315D02*
Y7417D01*
X8293Y7620D02*
X8395D01*
X8344Y7569D02*
Y7671D01*
X8039Y7620D02*
X8141D01*
X8090Y7569D02*
Y7671D01*
X8293Y7874D02*
X8395D01*
X8344Y7823D02*
Y7925D01*
X8039Y7874D02*
X8141D01*
X8090Y7823D02*
Y7925D01*
X8293Y8128D02*
X8395D01*
X8344Y8077D02*
Y8179D01*
X8039Y8128D02*
X8141D01*
X8090Y8077D02*
Y8179D01*
X8293Y8382D02*
X8395D01*
X8344Y8331D02*
Y8433D01*
X8039Y8382D02*
X8141D01*
X8090Y8331D02*
Y8433D01*
X8293Y8636D02*
X8395D01*
X8344Y8585D02*
Y8687D01*
X8039Y8636D02*
X8141D01*
X8090Y8585D02*
Y8687D01*
X8293Y8890D02*
X8395D01*
X8344Y8839D02*
Y8941D01*
X8039Y8890D02*
X8141D01*
X8090Y8839D02*
Y8941D01*
X8293Y9144D02*
X8395D01*
X8344Y9093D02*
Y9195D01*
X8039Y9144D02*
X8141D01*
X8090Y9093D02*
Y9195D01*
X8293Y9398D02*
X8395D01*
X8344Y9347D02*
Y9449D01*
X8039Y9398D02*
X8141D01*
X8090Y9347D02*
Y9449D01*
X8293Y9652D02*
X8395D01*
X8344Y9601D02*
Y9703D01*
X8039Y9652D02*
X8141D01*
X8090Y9601D02*
Y9703D01*
X9556Y5067D02*
X9646D01*
X9601Y5022D02*
Y5112D01*
X9556Y5321D02*
X9646D01*
X9601Y5276D02*
Y5366D01*
X9556Y5575D02*
X9646D01*
X9601Y5530D02*
Y5620D01*
X9556Y5829D02*
X9646D01*
X9601Y5784D02*
Y5874D01*
X9556Y6337D02*
X9646D01*
X9601Y6292D02*
Y6382D01*
X9556Y6591D02*
X9646D01*
X9601Y6546D02*
Y6636D01*
X9556Y6083D02*
X9646D01*
X9601Y6038D02*
Y6128D01*
X8082Y10182D02*
X8357D01*
X8219Y10044D02*
Y10319D01*
X8082Y4381D02*
X8357D01*
X8219Y4244D02*
Y4519D01*
X12982Y4381D02*
X13257D01*
X13119Y4244D02*
Y4519D01*
X12982Y10182D02*
X13257D01*
X13119Y10044D02*
Y10319D01*
X12344Y10325D02*
X12471D01*
X12408Y10262D02*
Y10389D01*
X12090Y10325D02*
X12217D01*
X12154Y10262D02*
Y10389D01*
X13199Y7379D02*
X13319D01*
X13259Y7319D02*
Y7439D01*
X13199Y7633D02*
X13319D01*
X13259Y7573D02*
Y7693D01*
X13199Y7887D02*
X13319D01*
X13259Y7827D02*
Y7947D01*
X13199Y8141D02*
X13319D01*
X13259Y8081D02*
Y8201D01*
X13199Y8395D02*
X13319D01*
X13259Y8335D02*
Y8455D01*
X11921Y4267D02*
X12031D01*
X11976Y4212D02*
Y4322D01*
X12429Y4267D02*
X12539D01*
X12484Y4212D02*
Y4322D01*
X9556Y8230D02*
X9646D01*
X9601Y8185D02*
Y8275D01*
X9556Y8484D02*
X9646D01*
X9601Y8439D02*
Y8529D01*
X9556Y8738D02*
X9646D01*
X9601Y8693D02*
Y8783D01*
X9556Y8992D02*
X9646D01*
X9601Y8947D02*
Y9037D01*
X9556Y9246D02*
X9646D01*
X9601Y9201D02*
Y9291D01*
X13199Y5309D02*
X13319D01*
X13259Y5249D02*
Y5369D01*
X13199Y5563D02*
X13319D01*
X13259Y5503D02*
Y5623D01*
X13199Y5817D02*
X13319D01*
X13259Y5757D02*
Y5877D01*
X13199Y6071D02*
X13319D01*
X13259Y6011D02*
Y6131D01*
X13199Y6325D02*
X13319D01*
X13259Y6265D02*
Y6385D01*
X9511Y10369D02*
X9591D01*
X9551Y10329D02*
Y10409D01*
X9711Y10369D02*
X9791D01*
X9751Y10329D02*
Y10409D01*
X9911Y10369D02*
X9991D01*
X9951Y10329D02*
Y10409D01*
X10111Y10369D02*
X10191D01*
X10151Y10329D02*
Y10409D01*
X7496Y4699D02*
X7567D01*
X7531Y4663D02*
Y4735D01*
M02*
